<?xml version="1.0" standalone="no"?>
<!DOCTYPE svg PUBLIC "-//W3C//DTD SVG 20010904//EN"
 "http://www.w3.org/TR/2001/REC-SVG-20010904/DTD/svg10.dtd">
<svg version="1.0" xmlns="http://www.w3.org/2000/svg"
 width="2048.000000pt" height="2048.000000pt" viewBox="0 0 2048.000000 2048.000000"
 preserveAspectRatio="xMidYMid meet">
<metadata>
Created by potrace 1.14, written by Peter Selinger 2001-2017
</metadata>
<g transform="translate(0.000000,2048.000000) scale(0.100000,-0.100000)"
fill="#000000" stroke="none">
<path d="M5907 15398 c-72 -15 -128 -75 -144 -153 -18 -85 -17 -10443 0
-10519 9 -40 23 -62 60 -98 26 -26 51 -47 55 -46 4 1 27 -2 52 -6 74 -14 1339
-10 1390 4 81 22 122 64 143 148 10 36 12 932 12 3810 0 2069 2 3762 5 3762 3
-1 31 -42 64 -93 53 -84 129 -199 156 -237 6 -8 56 -82 110 -165 55 -82 109
-161 120 -175 11 -14 20 -30 20 -37 0 -6 4 -13 8 -15 5 -2 148 -212 319 -468
368 -552 1109 -1659 1123 -1680 6 -8 18 -27 28 -42 9 -15 194 -292 411 -615
217 -323 581 -867 810 -1208 228 -341 470 -702 538 -803 68 -101 123 -187 123
-192 0 -5 3 -10 8 -12 4 -1 176 -255 382 -563 972 -1455 898 -1346 948 -1387
47 -38 86 -40 807 -40 385 0 721 3 745 7 89 15 141 63 164 152 17 68 15 10478
-2 10538 -17 58 -75 115 -133 133 -13 3 -319 8 -679 10 -760 4 -770 3 -835
-63 -34 -34 -44 -53 -53 -101 -9 -45 -11 -966 -10 -3812 2 -2063 1 -3752 -2
-3752 -4 1 -265 390 -1087 1620 -130 195 -240 357 -243 360 -4 3 -9 10 -11 16
-2 5 -80 124 -174 262 -93 139 -175 260 -180 270 -6 9 -39 60 -75 112 -36 52
-69 103 -75 112 -5 9 -196 295 -424 635 -228 340 -585 872 -793 1183 -208 311
-382 572 -388 580 -33 48 -637 950 -1060 1585 -272 407 -497 742 -501 745 -3
3 -23 34 -45 70 -49 81 -120 155 -159 166 -45 12 -1470 14 -1528 2z"/>
</g>
</svg>
